<svg width="46" height="42" viewBox="0 0 46 42" fill="none" xmlns="http://www.w3.org/2000/svg">
<path d="M44.7871 2.10674C45.5319 2.95749 45.6086 3.88701 45.3567 4.96358C44.9897 6.51278 42.1088 6.02965 40.5971 6.42876C36.9166 7.4003 32.3213 13.4921 34.074 17.2312C34.9065 19.0062 37.3547 20.5397 38.4392 21.9681C40.9203 25.2293 36.0074 26.705 33.2743 26.3899C32.3706 26.2849 28.8982 24.8722 28.4929 26.059C27.9123 27.7448 31.927 32.5184 32.8471 34.1517C33.3017 34.9552 34.7367 37.8855 34.7422 38.6155C34.7422 39.9809 31.9872 41.8294 30.6618 41.2413C28.5038 40.2802 29.7909 36.6619 27.1729 35.3963C26.2528 34.9499 22.0957 34.2987 20.951 34.2725C19.0395 34.2304 17.4567 34.9342 15.7423 35.0707C14.5922 35.16 13.201 34.7083 12.4725 34.8029C11.7441 34.8974 10.8404 36.1998 10.0079 36.2681C9.46017 36.3153 7.80063 35.8637 7.20911 35.6431C5.8289 35.1337 4.44868 33.4847 3.35875 33.2904C2.61935 33.1591 -0.518992 34.1832 0.817406 32.0406C1.61158 30.7697 4.17483 30.339 5.34144 29.294C7.05575 27.7553 6.03702 26.1536 5.77412 24.4258C5.45646 22.3042 5.1607 20.1826 4.72801 18.0767C3.88455 16.2071 0.664048 17.1629 0.286132 15.2461C-0.173939 12.9407 2.53719 13.0352 2.95893 11.2654C3.44091 9.23834 1.02553 7.15348 4.27342 6.75436C6.95717 6.42351 6.96264 8.49787 8.34286 10.1469C9.1425 11.0974 10.6596 12.5678 11.9303 12.7359C14.8715 13.1245 14.0335 11.5753 15.2439 11.2392C16.1093 10.9976 17.1718 11.465 17.9441 10.9398C19.4612 9.91054 17.7634 6.27647 19.0559 5.96663C19.9268 5.75656 19.9706 6.79637 20.2445 7.11146C21.3125 8.34557 21.9369 7.88343 23.3335 8.35607C25.9406 9.24358 30.7275 14.2431 32.5733 9.22783C33.0826 7.84142 32.513 7.13772 32.6773 6.18194C32.7814 5.56226 33.3784 5.11588 33.5208 4.62749C33.8166 3.62969 33.9699 1.04593 35.0215 0.557539C35.5418 0.315967 40.6026 0.331721 41.4351 0.442004C42.3443 0.568041 44.1846 1.41878 44.7761 2.09098L44.7871 2.10674Z" fill="#A8A8A8"/>
</svg>
